<svg viewBox="0 0 72 72" xmlns="http://www.w3.org/2000/svg"><g style="fill:none;stroke:#000;stroke-linecap:round;stroke-linejoin:round;stroke-miterlimit:10;stroke-width:2"><path d="m8.0416 29h56"/><path d="m8.0416 26v8"/><path d="m64.0416 26v8"/><path d="m36.0416 26v8"/><path d="m22.0416 26v6"/><path d="m50.0416 26v6"/><path d="m8.0085 45.9053c-1.0579 0-1.9155-.8576-1.9155-1.9155v-3.1689c0-1.0579.8576-1.9156 1.9155-1.9156 1.058 0 1.9156.8577 1.9156 1.9156v3.1689c0 1.0579-.8576 1.9155-1.9156 1.9155z"/><path d="m61.8334 40.6119c.2005-.9798 1.0674-1.7169 2.1065-1.7169.5937 0 1.1313.2407 1.5204.6298.6053.6053.5494 1.6111-.0185 2.2515l-3.6521 4.1187h4.3004"/><path d="m35.1209 40.4123 1.9379-1.4518v7"/></g></svg>